<svg width="34" height="30" viewBox="0 0 34 30" fill="none" xmlns="http://www.w3.org/2000/svg">
<path d="M30.75 30C30.0417 30 29.4483 29.76 28.97 29.28C28.49 28.8017 28.25 28.2083 28.25 27.5V2.5C28.25 1.79167 28.49 1.1975 28.97 0.7175C29.4483 0.239167 30.0417 0 30.75 0C31.4583 0 32.0517 0.239167 32.53 0.7175C33.01 1.1975 33.25 1.79167 33.25 2.5V27.5C33.25 28.2083 33.01 28.8017 32.53 29.28C32.0517 29.76 31.4583 30 30.75 30ZM4.625 27.4375C3.79167 28.0208 2.9375 28.0625 2.0625 27.5625C1.1875 27.0625 0.75 26.3125 0.75 25.3125V4.6875C0.75 3.6875 1.1875 2.9475 2.0625 2.4675C2.9375 1.98917 3.79167 2.02083 4.625 2.5625L20.125 12.9375C20.875 13.4375 21.25 14.125 21.25 15C21.25 15.875 20.875 16.5625 20.125 17.0625L4.625 27.4375Z" fill="white"/>
</svg>
